HIERARCHY
ROOT Hips
{
	OFFSET 0.000000 0.000000 0.000000
	CHANNELS 6 Xposition Yposition Zposition Xrotation Yrotation Zrotation
	JOINT LeftUpLeg_virtual
	{
		OFFSET 0.000000 0.000000 0.000000
		CHANNELS 3 Xrotation Yrotation Zrotation
		JOINT LeftUpLeg
		{
			OFFSET 13.026900 -6.336304 -1.092800
			CHANNELS 3 Xrotation Yrotation Zrotation
			JOINT LeftLeg
			{
				OFFSET 0.524474 -46.096886 9.782700
				CHANNELS 3 Xrotation Yrotation Zrotation
				JOINT LeftFoot
				{
					OFFSET -0.524474 -53.427422 -12.948200
					CHANNELS 3 Xrotation Yrotation Zrotation
					JOINT LeftToeBase
					{
						OFFSET 0.192200 -14.009700 16.364100
						CHANNELS 3 Xrotation Yrotation Zrotation
						JOINT LeftToe_End
						{
							OFFSET -1.784700 -0.561700 9.474800
							CHANNELS 3 Xrotation Yrotation Zrotation
							End Site
							{
								OFFSET 0 0 0
							}
						}
					}
				}
			}
		}
	}
	JOINT RightUpLeg_virtual
	{
		OFFSET 0.000000 0.000000 0.000000
		CHANNELS 3 Xrotation Yrotation Zrotation
		JOINT RightUpLeg
		{
			OFFSET -12.883000 -6.336304 -1.092800
			CHANNELS 3 Xrotation Yrotation Zrotation
			JOINT RightLeg
			{
				OFFSET -0.524587 -46.096825 9.782800
				CHANNELS 3 Xrotation Yrotation Zrotation
				JOINT RightFoot
				{
					OFFSET 0.524587 -53.427383 -12.948300
					CHANNELS 3 Xrotation Yrotation Zrotation
					JOINT RightToeBase
					{
						OFFSET -0.192200 -14.009700 16.364100
						CHANNELS 3 Xrotation Yrotation Zrotation
						JOINT RightToe_End
						{
							OFFSET 1.784700 -0.561700 9.474800
							CHANNELS 3 Xrotation Yrotation Zrotation
							End Site
							{
								OFFSET 0 0 0
							}
						}
					}
				}
			}
		}
	}
	JOINT Spine_virtual
	{
		OFFSET 0.000000 0.000000 0.000000
		CHANNELS 3 Xrotation Yrotation Zrotation
		JOINT Spine
		{
			OFFSET 0.072000 7.257294 -0.789700
			CHANNELS 3 Xrotation Yrotation Zrotation
			JOINT Spine1
			{
				OFFSET 0.000000 12.508769 -0.658067
				CHANNELS 3 Xrotation Yrotation Zrotation
				JOINT Spine1_split
				{
					OFFSET 0.000000 12.508769 -0.658067
					CHANNELS 3 Xrotation Yrotation Zrotation
					JOINT Spine2
					{
						OFFSET 0.000000 12.508769 -0.658067
						CHANNELS 3 Xrotation Yrotation Zrotation
						JOINT Neck_virtual
						{
							OFFSET 0.000000 0.000000 0.000000
							CHANNELS 3 Xrotation Yrotation Zrotation
							JOINT Neck
							{
								OFFSET 0.000000 14.033295 7.520400
								CHANNELS 3 Xrotation Yrotation Zrotation
								JOINT Head
								{
									OFFSET 0.000000 8.198502 5.703100
									CHANNELS 3 Xrotation Yrotation Zrotation
									JOINT HeadTop_End
									{
										OFFSET 0.000000 17.760803 13.332701
										CHANNELS 3 Xrotation Yrotation Zrotation
										End Site
										{
											OFFSET 0 0 0
										}
									}
								}
							}
						}
						JOINT LeftShoulder_virtual
						{
							OFFSET 0.000000 0.000000 0.000000
							CHANNELS 3 Xrotation Yrotation Zrotation
							JOINT LeftShoulder
							{
								OFFSET 6.292450 5.785301 -0.669000
								CHANNELS 3 Xrotation Yrotation Zrotation
								JOINT LeftShoulder_split
								{
									OFFSET 6.292450 5.785301 -0.669000
									CHANNELS 3 Xrotation Yrotation Zrotation
									JOINT LeftArm
									{
										OFFSET 13.907140 -6.093903 1.965100
										CHANNELS 3 Xrotation Yrotation Zrotation
										JOINT LeftForeArm
										{
											OFFSET 34.140198 0.000000 0.000000
											CHANNELS 3 Xrotation Yrotation Zrotation
											JOINT LeftHand
											{
												OFFSET 40.960209 0.000000 0.000000
												CHANNELS 3 Xrotation Yrotation Zrotation
												End Site
												{
													OFFSET 0 0 0
												}
											}
										}
									}
								}
							}
						}
						JOINT RightShoulder_virtual
						{
							OFFSET 0.000000 0.000000 0.000000
							CHANNELS 3 Xrotation Yrotation Zrotation
							JOINT RightShoulder
							{
								OFFSET -6.292450 5.785301 -0.669000
								CHANNELS 3 Xrotation Yrotation Zrotation
								JOINT RightShoulder_split
								{
									OFFSET -6.292450 5.785301 -0.669000
									CHANNELS 3 Xrotation Yrotation Zrotation
									JOINT RightArm
									{
										OFFSET -13.907140 -6.093903 1.965100
										CHANNELS 3 Xrotation Yrotation Zrotation
										JOINT RightForeArm
										{
											OFFSET -34.140198 0.000000 0.000000
											CHANNELS 3 Xrotation Yrotation Zrotation
											JOINT RightHand
											{
												OFFSET -40.960209 0.000000 0.000000
												CHANNELS 3 Xrotation Yrotation Zrotation
												End Site
												{
													OFFSET 0 0 0
												}
											}
										}
									}
								}
							}
						}
					}
				}
			}
		}
	}
}
MOTION
Frames: 10
Frame Time: 0.03333333
0.551698 58.358349 -3.843884 0.000000 0.000000 0.000000 178.484454 -8.152294 172.066727 -80.723834 -18.093861 15.049425 102.157213 3.258822 1.779896 -14.656285 4.149666 -16.283994 -7.184644 -0.021237 1.226789 0.000000 0.000000 0.000000 178.165061 -4.575928 172.500307 -55.055973 16.911318 -27.281495 96.713040 4.422027 -0.636167 -21.195433 -6.773502 32.524053 -4.728834 -2.415511 -0.146625 0.000000 0.000000 0.000000 178.857219 -6.043030 169.743602 6.893243 4.932394 -2.920947 7.993440 7.191697 -3.857722 0.626386 -3.504805 0.751914 0.000000 0.000000 0.000000 7.764010 6.681856 -3.665863 -5.079919 23.801211 7.292786 6.637364 33.345571 -24.235644 0.000000 0.000000 0.000000 8.428465 6.977517 -3.949585 0.933434 -13.541900 -10.610594 -3.532314 -1.398087 -3.961842 2.976261 2.414676 -31.597439 36.770276 -40.111358 1.190903 0.000000 0.000000 0.000000 7.990642 7.026854 -4.232622 5.184845 -18.120268 13.265772 0.953564 2.137162 -1.522567 12.777693 -12.693323 60.658411 34.579407 49.126532 -8.679790 0.000000 0.000000 0.000000 
0.543066 58.369659 -3.853718 0.000000 0.000000 0.000000 178.432217 -8.180092 172.048039 -80.734509 -18.077537 15.049109 102.123411 3.247968 1.789846 -14.675464 4.136037 -16.271843 -7.170743 -0.022591 1.228087 0.000000 0.000000 0.000000 178.111512 -4.596984 172.489106 -55.092675 16.865868 -27.311017 96.719331 4.421615 -0.626134 -21.199394 -6.768445 32.497053 -4.725836 -2.413009 -0.142395 0.000000 0.000000 0.000000 178.800842 -6.063027 169.725119 6.873020 4.936982 -2.915710 7.954027 7.187818 -3.861987 0.623227 -3.509814 0.751190 0.000000 0.000000 0.000000 7.717279 6.678652 -3.668660 -5.139551 23.809365 7.288986 6.739487 33.317635 -24.232753 0.000000 0.000000 0.000000 8.393158 6.973344 -3.953893 0.931495 -13.572182 -10.609571 -3.511433 -1.397474 -3.956409 3.030276 2.438901 -31.556055 36.757080 -40.210430 1.181913 0.000000 0.000000 0.000000 7.954326 7.023776 -4.239192 5.190921 -18.142658 13.216177 0.942755 2.128178 -1.529134 12.777232 -12.686091 60.758364 34.597452 49.056710 -8.706357 0.000000 0.000000 0.000000 
0.537615 58.380814 -3.863621 0.000000 0.000000 0.000000 178.386933 -8.212075 172.024899 -80.741927 -18.077212 15.043466 102.092224 3.237316 1.795860 -14.685841 4.127695 -16.254476 -7.165232 -0.022783 1.225199 0.000000 0.000000 0.000000 178.064985 -4.622842 172.476019 -55.115675 16.823683 -27.337021 96.719010 4.417989 -0.616988 -21.211953 -6.763652 32.473960 -4.702255 -2.409420 -0.138456 0.000000 0.000000 0.000000 178.749753 -6.088075 169.702839 6.850570 4.945103 -2.908665 7.920844 7.187893 -3.866108 0.613913 -3.515719 0.753797 0.000000 0.000000 0.000000 7.677471 6.678957 -3.673499 -5.165584 23.818326 7.283596 6.830782 33.298029 -24.245527 0.000000 0.000000 0.000000 8.365237 6.972153 -3.959332 0.929962 -13.611844 -10.608207 -3.488368 -1.388903 -3.947638 3.082899 2.485066 -31.503414 36.742914 -40.331946 1.180555 0.000000 0.000000 0.000000 7.923456 7.024117 -4.246419 5.195849 -18.171090 13.168705 0.930793 2.121960 -1.536978 12.773264 -12.679177 60.863358 34.606608 48.976343 -8.725531 0.000000 0.000000 0.000000 
0.535983 58.387646 -3.871929 0.000000 0.000000 0.000000 178.349626 -8.248723 171.998780 -80.751394 -18.096702 15.031749 102.069097 3.223448 1.800743 -14.680580 4.120407 -16.236987 -7.172394 -0.021975 1.218941 0.000000 0.000000 0.000000 178.026900 -4.653595 172.460419 -55.127068 16.784746 -27.361736 96.716490 4.412202 -0.608718 -21.226478 -6.758535 32.464808 -4.668874 -2.405271 -0.135943 0.000000 0.000000 0.000000 178.705671 -6.119580 169.677772 6.830348 4.956806 -2.899973 7.895766 7.192579 -3.867712 0.603092 -3.511933 0.752540 0.000000 0.000000 0.000000 7.645619 6.683605 -3.677617 -5.153931 23.826698 7.270600 6.908568 33.286674 -24.275747 0.000000 0.000000 0.000000 8.346384 6.974382 -3.963154 0.929128 -13.663835 -10.606758 -3.467687 -1.369579 -3.939691 3.132375 2.559624 -31.442397 36.728058 -40.473512 1.186995 0.000000 0.000000 0.000000 7.899950 7.028699 -4.251362 5.200668 -18.200402 13.122477 0.923492 2.123261 -1.549945 12.775851 -12.669151 60.973652 34.600833 48.873104 -8.732368 0.000000 0.000000 0.000000 
0.537841 58.385044 -3.879837 0.000000 0.000000 0.000000 178.319683 -8.293594 171.971978 -80.768469 -18.135324 15.012136 102.057527 3.203356 1.806760 -14.663219 4.110871 -16.223472 -7.187004 -0.020465 1.210074 0.000000 0.000000 0.000000 177.997981 -4.689936 172.442797 -55.127843 16.751901 -27.386564 96.721073 4.406278 -0.602864 -21.239774 -6.753397 32.473783 -4.638247 -2.401579 -0.135249 0.000000 0.000000 0.000000 178.670522 -6.160612 169.652350 6.817313 4.971369 -2.890845 7.881989 7.202363 -3.864376 0.589323 -3.504023 0.751740 0.000000 0.000000 0.000000 7.623614 6.692888 -3.678383 -5.103531 23.834953 7.244797 6.975252 33.285274 -24.328164 0.000000 0.000000 0.000000 8.338020 6.979939 -3.962066 0.928817 -13.728620 -10.608051 -3.452618 -1.341469 -3.931030 3.174782 2.661901 -31.376120 36.713787 -40.641651 1.204226 0.000000 0.000000 0.000000 7.885550 7.037430 -4.251138 5.205752 -18.229275 13.072758 0.922256 2.130040 -1.570180 12.787111 -12.652605 61.091350 34.578550 48.747873 -8.728698 0.000000 0.000000 0.000000 
0.542145 58.369621 -3.886841 0.000000 0.000000 0.000000 178.296911 -8.349345 171.946228 -80.797217 -18.189745 14.980263 102.058483 3.176872 1.814892 -14.640560 4.098093 -16.216906 -7.199964 -0.018456 1.199859 0.000000 0.000000 0.000000 177.976821 -4.734641 172.423877 -55.117236 16.729611 -27.412392 96.740791 4.399501 -0.599969 -21.255687 -6.751842 32.497979 -4.617730 -2.399408 -0.135474 0.000000 0.000000 0.000000 178.645456 -6.211323 169.627051 6.815302 4.987629 -2.882424 7.882322 7.216508 -3.854944 0.580746 -3.492817 0.745806 0.000000 0.000000 0.000000 7.615114 6.705951 -3.674180 -5.016049 23.842635 7.202039 7.036652 33.296561 -24.408019 0.000000 0.000000 0.000000 8.342274 6.988600 -3.954080 0.928959 -13.804543 -10.613167 -3.442050 -1.310299 -3.921476 3.201358 2.784434 -31.305708 36.700673 -40.844992 1.234600 0.000000 0.000000 0.000000 7.882998 7.049844 -4.243908 5.211750 -18.259507 13.015865 0.921654 2.138521 -1.598808 12.802601 -12.633380 61.214819 34.542394 48.613048 -8.721294 0.000000 0.000000 0.000000 
0.546516 58.340340 -3.892826 0.000000 0.000000 0.000000 178.280505 -8.418031 171.924372 -80.837283 -18.253885 14.933208 102.068585 3.144371 1.826397 -14.622159 4.083988 -16.219674 -7.206409 -0.016297 1.190834 0.000000 0.000000 0.000000 177.962382 -4.788842 172.404876 -55.095120 16.723001 -27.439749 96.779245 4.389110 -0.598302 -21.279010 -6.759359 32.527758 -4.605962 -2.400231 -0.135472 0.000000 0.000000 0.000000 178.630525 -6.272997 169.603651 6.825546 5.004624 -2.876278 7.897667 7.233757 -3.840004 0.575728 -3.476748 0.738967 0.000000 0.000000 0.000000 7.623335 6.722160 -3.665151 -4.892856 23.850474 7.144822 7.102608 33.324329 -24.522152 0.000000 0.000000 0.000000 8.360349 6.999570 -3.939195 0.929186 -13.886696 -10.622848 -3.432083 -1.281042 -3.906195 3.201551 2.913222 -31.234810 36.681913 -41.077157 1.273071 0.000000 0.000000 0.000000 7.893447 7.064925 -4.229867 5.218942 -18.296521 12.948941 0.917029 2.144369 -1.636050 12.811310 -12.608866 61.342858 34.496796 48.479754 -8.716939 0.000000 0.000000 0.000000 
0.550153 58.300983 -3.900398 0.000000 0.000000 0.000000 178.270109 -8.498965 171.906777 -80.881290 -18.319093 14.871198 102.083536 3.110170 1.838450 -14.617272 4.073268 -16.228866 -7.204764 -0.014392 1.184828 0.000000 0.000000 0.000000 177.953626 -4.853553 172.388879 -55.060030 16.735758 -27.469216 96.833941 4.374521 -0.597867 -21.310021 -6.776928 32.558627 -4.598416 -2.404191 -0.135188 0.000000 0.000000 0.000000 178.625634 -6.342816 169.583816 6.845750 5.021467 -2.873411 7.927636 7.253249 -3.822032 0.576779 -3.466363 0.733106 0.000000 0.000000 0.000000 7.649750 6.740809 -3.653963 -4.741692 23.857052 7.081283 7.182039 33.369214 -24.672738 0.000000 0.000000 0.000000 8.393144 7.012347 -3.919797 0.929811 -13.970758 -10.636402 -3.422994 -1.252922 -3.886747 3.168041 3.032290 -31.164695 36.648213 -41.311112 1.308731 0.000000 0.000000 0.000000 7.916842 7.082072 -4.211557 5.227345 -18.346856 12.872711 0.909615 2.154037 -1.675694 12.806513 -12.572224 61.475152 34.442469 48.346080 -8.715350 0.000000 0.000000 0.000000 
0.551929 58.258018 -3.907631 0.000000 0.000000 0.000000 178.266872 -8.585101 171.893008 -80.920407 -18.379300 14.797397 102.098310 3.080225 1.847856 -14.623840 4.070283 -16.239412 -7.199505 -0.012706 1.182212 0.000000 0.000000 0.000000 177.951003 -4.927372 172.376066 -55.011662 16.770435 -27.498622 96.890133 4.356863 -0.600286 -21.343767 -6.802061 32.599462 -4.599037 -2.410830 -0.136033 0.000000 0.000000 0.000000 178.630047 -6.418458 169.568885 6.872768 5.037214 -2.874472 7.969251 7.273677 -3.804671 0.581544 -3.458268 0.730835 0.000000 0.000000 0.000000 7.692037 6.760992 -3.643549 -4.573936 23.860349 7.024096 7.280349 33.429620 -24.857109 0.000000 0.000000 0.000000 8.439652 7.026294 -3.900322 0.931507 -14.048605 -10.652214 -3.412711 -1.227300 -3.862785 3.103305 3.124649 -31.101502 36.587643 -41.508350 1.328468 0.000000 0.000000 0.000000 7.952967 7.100668 -4.193051 5.237794 -18.417233 12.791346 0.902831 2.174528 -1.711412 12.785754 -12.509593 61.610144 34.375847 48.196595 -8.708962 0.000000 0.000000 0.000000 
0.552284 58.220596 -3.913841 0.000000 0.000000 0.000000 178.272076 -8.671478 171.882161 -80.946874 -18.429329 14.721289 102.108015 3.058622 1.851513 -14.635854 4.077295 -16.246479 -7.196520 -0.011071 1.182162 0.000000 0.000000 0.000000 177.956467 -5.007368 172.365588 -54.947803 16.821923 -27.524173 96.932453 4.337865 -0.606350 -21.375799 -6.830745 32.654912 -4.606658 -2.419212 -0.138574 0.000000 0.000000 0.000000 178.643953 -6.495928 169.559719 6.902146 5.051707 -2.878989 8.019066 7.294535 -3.790907 0.585077 -3.451473 0.732146 0.000000 0.000000 0.000000 7.745542 6.782673 -3.637178 -4.400698 23.857262 6.987136 7.397606 33.502645 -25.065857 0.000000 0.000000 0.000000 8.497721 7.041085 -3.884335 0.934760 -14.110073 -10.668656 -3.400259 -1.202077 -3.835766 3.018192 3.171365 -31.053359 36.497539 -41.633428 1.324367 0.000000 0.000000 0.000000 7.999382 7.119901 -4.178482 5.250101 -18.511858 12.709884 0.902161 2.209001 -1.738797 12.746078 -12.408120 61.744111 34.291982 48.012330 -8.687192 0.000000 0.000000 0.000000 
